
<svg xmlns="http://www.w3.org/2000/svg" >
    <g fill="none" fill-rule="evenodd" opacity=".5">
        <path stroke="#4454A5" stroke-linecap="round" stroke-linejoin="round" d="M425.757 411.171L374.435 177.241 190.823 587.033 14.469 615.269 0.679 492.911 190.823 587.033 308.282 613.572 458.745 481.144 411.448 623.958 558.047 667.398 589.975 539.042 664.991 508.625 706.823 593.842 838.908 482.051 969.904 737.502 955.026 630.766 838.908 482.051 817.497 751.747 706.823 593.842 738.03 541.976 664.991 508.625 636.79 621.424 589.975 539.042 727.143 675.725 838.908 482.051 1064.602 588.241 1171.296 587.033 1245.321 694.186"/>
        <path stroke="#4454A5" stroke-linecap="round" stroke-linejoin="round" d="M458.533 347.012L655.238 354.491 590.024 540.323 426.071 411.975 542.93 411.975 411.785 625.556 334.257 524.543 308.785 615.13 411.785 625.556 590.024 540.323 459.006 482.208 426.071 411.975 458.533 347.012 542.93 411.975 590.024 540.323 664.918 509.793 718.276 456.232 737.839 543.267 838.554 483.121 1063.883 589.704 1089.232 739.523 954.484 632.389 706.682 595.327"/>
        <g stroke="#4454A5" stroke-linecap="round" stroke-linejoin="round">
            <path d="M142.207 233.818L117.921 398.799 259.544 260.4 338.82 310.515 509.051 314.314 587.712 268.265 657.673 240.639 677.973 322.654 594.597 420.499 509.051 314.314 355.353 391.184 540.946 185.748 285.03 170.002 142.207 233.818 218.331 165.832 376.898 57.671 606.2 0.307 615.885 155.283" transform="translate(48.184 353.803)"/>
            <path d="M338.82 310.515L308.236 420.499 259.545 260.4 0.472 341.145 142.208 233.818" transform="translate(48.184 353.803)"/>
        </g>
        <path stroke="#4454A5" stroke-linecap="round" stroke-linejoin="round" d="M243.29 149.01L82.432 112.728 183.402 256.45 191.44 586.729 32.575 332.241 183.402 256.45 426.192 410.992"/>
        <g stroke="#4454A5" stroke-linecap="round" stroke-linejoin="round">
            <path d="M211.158 148.864L.421 332.727 235.453 520.03 151.263 256.675 60.601.581 211.158 148.864 151.263 256.675 342.791 177.178 235.453 520.03 302.177 524.204 427.043 481.911 511.047 411.748 302.177 524.204 355.987 664.874 379.778 625.118M558.186 539.969L611.855 774.981" transform="translate(31.897 .68)"/>
        </g>
        <path stroke="#4454A5" stroke-linecap="round" stroke-linejoin="round" d="M718.69 455.666L838.929 482.507 869.35 763.97M1088.552 738.061L1169.906 586.949 1155.698 744.956 1063.146 588.162 953.502 630.87 1056.621 516.783 1189.672 741.899"/>
        <path stroke="#4454A5" stroke-linecap="round" stroke-linejoin="round" d="M1169.991 587.23L1056.302 517.463 967.754 737.486"/>
        <g fill="#4454A5">
            <path d="M664.614 338.529c0 3.133-2.543 5.673-5.679 5.673s-5.679-2.54-5.679-5.673 2.543-5.673 5.68-5.673c3.135 0 5.678 2.54 5.678 5.673M197.521 34.328c0 1.175-.953 2.127-2.13 2.127-1.176 0-2.129-.952-2.129-2.127 0-1.175.953-2.128 2.13-2.128 1.176 0 2.13.953 2.13 2.128M159.188 379.656c0 2.35-1.906 4.255-4.259 4.255-2.352 0-4.259-1.905-4.259-4.255 0-2.35 1.907-4.254 4.26-4.254 2.352 0 4.258 1.904 4.258 4.254M369.866 267.818c0 3.578-2.905 6.48-6.489 6.48-3.583 0-6.488-2.902-6.488-6.48 0-3.58 2.905-6.48 6.488-6.48 3.584 0 6.489 2.9 6.489 6.48M893.048 444.928c0 4.649-3.773 8.418-8.428 8.418-4.655 0-8.428-3.77-8.428-8.418 0-4.649 3.773-8.42 8.428-8.42 4.655 0 8.428 3.771 8.428 8.42M5.857 113.037c0 1.567-1.271 2.836-2.84 2.836-1.568 0-2.839-1.27-2.839-2.836 0-1.567 1.271-2.836 2.84-2.836 1.568 0 2.84 1.27 2.84 2.836M68.383 5.591c0 2.638-2.141 4.777-4.78 4.777-2.641 0-4.782-2.139-4.782-4.777 0-2.638 2.14-4.775 4.781-4.775 2.64 0 4.78 2.137 4.78 4.775M385.67 524.104c0 3.9-3.164 7.061-7.068 7.061-3.905 0-7.07-3.16-7.07-7.06 0-3.9 3.165-7.062 7.07-7.062 3.904 0 7.069 3.163 7.069 7.061M416.16 395.256c0 3.133-2.542 5.673-5.678 5.673-3.137 0-5.68-2.54-5.68-5.673s2.543-5.673 5.68-5.673c3.136 0 5.678 2.54 5.678 5.673M17.215 444.184c0 2.742-2.225 4.963-4.97 4.963-2.743 0-4.968-2.22-4.968-4.963 0-2.742 2.225-4.964 4.969-4.964s4.969 2.222 4.969 4.964M87.492 379.656c-1.96 0-3.55-1.587-3.55-3.545 0-1.959 1.59-3.546 3.55-3.546 1.96 0 3.55 1.587 3.55 3.546 0 1.958-1.59 3.545-3.55 3.545z" transform="translate(178.795 143.966)"/>
            <path d="M365.868 267.818c0 1.374-1.116 2.488-2.491 2.488-1.376 0-2.49-1.114-2.49-2.488 0-1.375 1.114-2.489 2.49-2.489 1.375 0 2.491 1.114 2.491 2.49M780.236 487.464c0 2.801-2.273 5.069-5.075 5.069-2.804 0-5.074-2.268-5.074-5.069 0-2.8 2.27-5.069 5.074-5.069 2.802 0 5.075 2.27 5.075 5.07" transform="translate(178.795 143.966)"/>
        </g>
    </g>
</svg>
